<?xml version="1.0" encoding="iso-8859-1"?>
<!-- Generator: Adobe Illustrator 19.0.0, SVG Export Plug-In . SVG Version: 6.00 Build 0)  -->
<svg version="1.1" id="Capa_1" xmlns="http://www.w3.org/2000/svg" xmlns:xlink="http://www.w3.org/1999/xlink" x="0px" y="0px"
	 viewBox="0 0 512 512" style="enable-background:new 0 0 512 512;" xml:space="preserve" fill="gray">
<g>
	<g>
		<path d="M283.459,188.396h-55.72V241h55.72c14.503,0,26.302-11.799,26.302-26.302S297.962,188.396,283.459,188.396z"/>
	</g>
</g>
<g>
	<g>
		<path d="M283.459,271h-55.72v52.604h55.72c14.503,0,26.302-11.799,26.302-26.302S297.962,271,283.459,271z"/>
	</g>
</g>
<g>
	<g>
		<path d="M437.02,74.98C388.667,26.629,324.38,0,256,0S123.333,26.629,74.98,74.98C26.629,123.333,0,187.62,0,256
			s26.629,132.667,74.98,181.02C123.333,485.371,187.62,512,256,512s132.667-26.629,181.02-74.98
			C485.371,388.667,512,324.38,512,256S485.371,123.333,437.02,74.98z M256,474.531c-120.499,0-218.531-98.032-218.531-218.531
			S135.501,37.469,256,37.469S474.531,135.501,474.531,256S376.499,474.531,256,474.531z"/>
	</g>
</g>
<g>
	<g>
		<path d="M256,67.469C152.044,67.469,67.469,152.044,67.469,256S152.044,444.531,256,444.531S444.531,359.956,444.531,256
			S359.956,67.469,256,67.469z M339.761,297.302c0,24.872-16.217,46.014-38.628,53.444v23.589h-30v-20.731h-18.285v20.731h-30
			v-20.731H197.74V271v-30v-82.604h25.108v-20.731h30v20.731h18.285v-20.731h30v23.589c22.411,7.431,38.628,28.573,38.628,53.444
			c0,16.307-6.976,31.01-18.092,41.302C332.785,266.292,339.761,280.995,339.761,297.302z"/>
	</g>
</g>
<g>
</g>
<g>
</g>
<g>
</g>
<g>
</g>
<g>
</g>
<g>
</g>
<g>
</g>
<g>
</g>
<g>
</g>
<g>
</g>
<g>
</g>
<g>
</g>
<g>
</g>
<g>
</g>
<g>
</g>
</svg>
